<svg xmlns="http://www.w3.org/2000/svg" xml:space="preserve" width="931.084" height="107.688" viewBox="0 0 246.349 28.493"><g aria-label="QueerDevs☭" style="font-weight:500;font-size:140px;font-family:Poppins;-inkscape-font-specification:&quot;Poppins Medium&quot;;letter-spacing:0;white-space:pre;opacity:.7;stroke-width:.823"><path d="m161.305 337.74-14 7.84 11.76 17.64c-3.5 1.4-7.42 2.24-11.62 2.24-18.34 0-31.08-14.84-31.08-34.44 0-19.18 12.74-34.02 31.08-34.02s31.08 14.84 31.08 34.02c0 8.68-2.52 16.38-6.86 22.26zm27.86 41.58-7.7-11.48c8.96-9.1 14.14-21.98 14.14-36.68 0-28.28-19.6-50.26-48.16-50.26s-48.16 21.98-48.16 50.26c0 28.42 19.6 50.4 48.16 50.4 7.7 0 14.7-1.54 21-4.48l6.72 10.08z" style="font-weight:400;font-family:&quot;LT Institute&quot;;-inkscape-font-specification:&quot;LT Institute&quot;;fill:#ee3124" transform="translate(6.104 -74.126)scale(.26458)"/><path d="M270.365 310.16h-15.82v40.46c0 8.96-5.6 16.8-15.4 16.8-8.82 0-15.12-6.3-15.12-15.82v-41.44h-15.82v41.44c0 17.92 11.06 29.96 27.02 29.96 9.38 0 15.26-3.92 19.88-10.08l.84.28 1.4 8.4h13.02z" style="font-weight:400;font-family:&quot;LT Institute&quot;;-inkscape-font-specification:&quot;LT Institute&quot;;fill:#f57f29" transform="translate(6.104 -74.126)scale(.26458)"/><path d="M299.485 337.74c2.1-8.12 7.98-14.56 17.36-14.56 9.24 0 15.12 6.44 17.22 14.56zm51.1 12.04v-4.62c0-20.44-13.86-36.4-33.74-36.4-20.02 0-33.88 15.96-33.88 36.4s14.84 36.4 35.98 36.4c11.9 0 21.7-4.76 27.86-12.46l-11.62-9.24c-3.5 4.48-9.1 7.28-15.96 7.28-11.9 0-18.62-8.12-20.3-17.36z" style="font-weight:400;font-family:&quot;LT Institute&quot;;-inkscape-font-specification:&quot;LT Institute&quot;;fill:#fff000" transform="translate(6.104 -74.126)scale(.26458)"/><path d="M375.085 337.74c2.1-8.12 7.98-14.56 17.36-14.56 9.24 0 15.12 6.44 17.22 14.56zm51.1 12.04v-4.62c0-20.44-13.86-36.4-33.74-36.4-20.02 0-33.88 15.96-33.88 36.4s14.84 36.4 35.98 36.4c11.9 0 21.7-4.76 27.86-12.46l-11.62-9.24c-3.5 4.48-9.1 7.28-15.96 7.28-11.9 0-18.62-8.12-20.3-17.36z" style="font-weight:400;font-family:&quot;LT Institute&quot;;-inkscape-font-specification:&quot;LT Institute&quot;;fill:#58b947" transform="translate(6.104 -74.126)scale(.26458)"/><path d="M478.405 309.6q-3.36-.84-6.72-.84c-8.54 0-14 3.92-18.06 10.08l-.84-.28-1.4-8.4h-13.02v70h15.82V339.7c0-8.96 4.9-16.8 15.4-16.8 2.38 0 6.16.42 8.82 1.12z" style="font-weight:400;font-family:&quot;LT Institute&quot;;-inkscape-font-specification:&quot;LT Institute&quot;;fill:#0054a6" transform="translate(6.104 -74.126)scale(.26458)"/><path d="M491.005 380.16h33.18c29.96 0 48.16-21.42 48.16-49s-18.2-49-48.16-49h-33.18zm16.8-14.84V297h16.38c19.74 0 31.08 14.84 31.08 33.88 0 19.6-11.34 34.44-31.08 34.44z" style="font-weight:400;font-family:&quot;LT Institute&quot;;-inkscape-font-specification:&quot;LT Institute&quot;;fill:#9f248f" transform="translate(6.104 -74.126)scale(.26458)"/><path d="M597.965 337.74c2.1-8.12 7.98-14.56 17.36-14.56 9.24 0 15.12 6.44 17.22 14.56zm51.1 12.04v-4.62c0-20.44-13.86-36.4-33.74-36.4-20.02 0-33.88 15.96-33.88 36.4s14.84 36.4 35.98 36.4c11.9 0 21.7-4.76 27.86-12.46l-11.62-9.24c-3.5 4.48-9.1 7.28-15.96 7.28-11.9 0-18.62-8.12-20.3-17.36z" style="font-weight:400;font-family:&quot;LT Institute&quot;;-inkscape-font-specification:&quot;LT Institute&quot;;fill:#f498c0" transform="translate(6.104 -74.126)scale(.26458)"/><path d="m653.545 310.16 27.16 70h16.94l27.16-70h-17.22l-18.06 50.68h-.7l-18.06-50.68z" style="font-weight:400;font-family:&quot;LT Institute&quot;;-inkscape-font-specification:&quot;LT Institute&quot;;fill:#7cc0ea" transform="translate(6.104 -74.126)scale(.26458)"/><path d="M757.005 322.62c6.16 0 11.48 2.38 14.84 6.02l10.08-10.64c-5.46-5.74-14.42-9.24-24.5-9.24-15.4 0-25.76 8.26-25.76 21 0 24.5 37.94 18.34 37.94 31.08 0 3.92-3.64 6.86-10.5 6.86s-14.7-2.94-19.88-8.4l-10.22 11.48c6.72 6.72 17.92 10.78 29.12 10.78 15.96 0 27.02-8.26 27.02-21.56 0-24.64-37.94-19.18-37.94-31.08 0-3.36 2.94-6.3 9.8-6.3" style="font-weight:400;font-family:&quot;LT Institute&quot;;-inkscape-font-specification:&quot;LT Institute&quot;;fill:#895121;fill-opacity:1" transform="translate(6.104 -74.126)scale(.26458)"/><path fill="#fbd314" fill-rule="evenodd" d="M19.24 283.07c-3.99.35-7.404.864-11.408 1.716-4.228.9-11.449 3.262-8.969 2.934 9.461-1.253 17.617-1.394 25.4-.439 1.63.2 2.33.305 4.305.646 1.628.28 3.986.823 5.668 1.303.237.068.657.182.933.255 3.149.83 8.73 3.168 11.6 4.86.578.341 1.08.62 1.113.62.1 0 2.636 1.696 3.718 2.487 4.74 3.465 9.642 8.882 12.165 13.442.721 1.303 1.775 3.393 2.098 4.162.373.888.7 1.654.888 2.08.173.394 1.003 2.9 1.164 3.516.072.276.197.728.277 1.005 1.225 4.247 1.812 10.438 1.413 14.915-.26 2.902-1.098 7.558-1.567 8.69a42 42 0 0 0-.563 1.678c-.908 2.837-2.38 5.977-3.973 8.475-.801 1.256-.889 1.295-1.435.646-.452-.538-4.682-4.99-7.534-7.929a485 485 0 0 1-3.302-3.438c-5.423-5.727-18.977-19.459-23.38-23.686-2.497-2.397-5.068-4.78-5.433-5.036-.472-.33-.698-.075 6.293-7.104 3.631-3.65 6.601-6.708 6.601-6.797 0-.156-2.652-2.712-3.868-3.728-.55-.46-.69-.507-1.49-.507-.486 0-1.562-.062-2.39-.137-.83-.076-3.154-.242-5.167-.367a264 264 0 0 1-5.154-.365 37 37 0 0 0-2.711-.136h-1.215l-.661.598c-.365.33-1.311 1.217-2.104 1.974-.794.755-2.699 2.537-4.234 3.957a940 940 0 0 0-4.088 3.803 645 645 0 0 1-2.224 2.082 976 976 0 0 0-5.45 5.093c-.119.118-.635.598-1.147 1.067s-1.448 1.34-2.08 1.937-1.593 1.503-2.136 2.013l-.986.926 6.993 6.93c3.846 3.812 7.058 6.93 7.137 6.93.23 0 1.004-.694 5.774-5.176a538 538 0 0 1 5.551-5.14l.86-.775.96.991c.528.545 2.412 2.508 4.188 4.362s4.04 4.21 5.031 5.236a650 650 0 0 1 3.302 3.442c.824.867 2.37 2.481 3.435 3.588 2.056 2.133 7.006 7.314 9.04 9.462 1.764 1.86 4.412 4.63 6.324 6.611.914.947 2.238 2.335 2.943 3.083a384 384 0 0 0 2.967 3.103c.927.958 1.686 1.81 1.686 1.891 0 .345-4.365 2.784-6.17 3.448-2.861 1.053-4.709 1.538-7.534 1.982-2.194.344-8.09.342-10.332-.003-2.933-.452-4.287-.725-6.673-1.346-.807-.21-2.63-.768-2.942-.9a15 15 0 0 0-.933-.331 47 47 0 0 1-3.052-1.146c-.255-.112-.836-.373-1.292-.58s-1.182-.523-1.228-.523c-6.97-3.277-10.553-5.583-16.4-11.487l-7.45 6.9c-4.37 3.705-9.888 8.833-10.875 10.105-3.282 4.226-1.508 9.33 3.972 11.426 1.845.706 4.03.043 5.822-1.765 1.485-1.499 2.514-2.87 5.948-7.928a977 977 0 0 1 3.052-4.464l1.493-2.167 1.36 1.292c5.29 5.032 9.813 8.03 16.283 10.796.548.234 2.286.859 2.941 1.057.277.084.89.276 1.364.428.944.303 3.486.9 4.95 1.163.513.092 1.224.223 1.579.292 3.57.683 11.771.683 14.996 0 .315-.067.961-.201 1.435-.298 2.356-.48 5.734-1.462 7.424-2.158.415-.171 1.014-.413 1.33-.537 1.353-.532 5.306-2.646 6.976-3.73 2.096-1.362 1.837-1.386 3.427.319 7.28 7.808 7.236 7.764 8.005 7.887 2.858.457 7.5-3.418 7.753-6.471.093-1.127-.132-1.454-3.489-5.063l-1.996-2.153c-.546-.59-1.498-1.603-2.117-2.251-1.167-1.223-1.282-1.453-.893-1.776.673-.559 4.06-5.398 5.424-7.749 4.56-7.86 6.433-19.01 4.809-28.615-1.588-9.39-5.086-17.317-10.955-24.825a57 57 0 0 0-1.085-1.364c-.041-.04-.325-.362-.63-.717-5.54-6.44-12.895-11.598-20.898-14.657-.829-.317-1.636-.63-1.794-.697a5 5 0 0 0-.574-.19 44 44 0 0 1-1.507-.458c-.67-.213-1.445-.44-1.722-.506-.276-.065-.76-.188-1.076-.273-1.616-.435-4.05-.901-6.816-1.306-3.596-.526-11.338-.736-15.068-.409" style="opacity:1;fill:red;stroke:red;stroke-width:1.88976;stroke-dasharray:none" transform="translate(6.104 -74.126)scale(.26458)"/><g style="fill:none;stroke:red;stroke-width:62" transform="translate(217.387 -.47)scale(.04748)"><circle cx="310" cy="310" r="269" style="fill:none;stroke:red"/><path d="M113 493 311 81l125 256H188h248l77 156" style="fill:none;stroke:red"/></g></g></svg>