<?xml version="1.0" encoding="UTF-8" standalone="no"?>
<!-- Created with Inkscape (http://www.inkscape.org/) -->

<svg
   width="246.34926mm"
   height="28.492579mm"
   viewBox="0 0 246.34926 28.492579"
   version="1.1"
   id="svg1"
   inkscape:version="1.3.2 (091e20ef0f, 2023-11-25, custom)"
   sodipodi:docname="qdb.svg"
   inkscape:export-filename="qdb.png"
   inkscape:export-xdpi="96"
   inkscape:export-ydpi="96"
   xml:space="preserve"
   xmlns:inkscape="http://www.inkscape.org/namespaces/inkscape"
   xmlns:sodipodi="http://sodipodi.sourceforge.net/DTD/sodipodi-0.dtd"
   xmlns="http://www.w3.org/2000/svg"
   xmlns:svg="http://www.w3.org/2000/svg"><sodipodi:namedview
     id="namedview1"
     pagecolor="#ffffff"
     bordercolor="#000000"
     borderopacity="0.25"
     inkscape:showpageshadow="2"
     inkscape:pageopacity="0.0"
     inkscape:pagecheckerboard="0"
     inkscape:deskcolor="#d1d1d1"
     inkscape:document-units="mm"
     inkscape:zoom="0.87372729"
     inkscape:cx="408.59431"
     inkscape:cy="73.821661"
     inkscape:window-width="1292"
     inkscape:window-height="1425"
     inkscape:window-x="0"
     inkscape:window-y="0"
     inkscape:window-maximized="1"
     inkscape:current-layer="text2" /><defs
     id="defs1"><rect
       x="94.38559"
       y="250.66064"
       width="821.10754"
       height="448.83597"
       id="rect2" /><rect
       x="68.856888"
       y="267.06665"
       width="696.57684"
       height="281.37311"
       id="rect1" /></defs><g
     inkscape:label="Layer 1"
     inkscape:groupmode="layer"
     id="layer1"
     transform="translate(28.088478,-122.73047)"><text
       xml:space="preserve"
       transform="scale(0.26458333)"
       id="text1"
       style="font-weight:500;font-size:66.6667px;font-family:Poppins;-inkscape-font-specification:'Poppins Medium';letter-spacing:0px;white-space:pre;shape-inside:url(#rect1);display:inline;opacity:0.7;fill:#000000;stroke-width:0.823" /><g
       id="text2"
       style="font-weight:500;font-size:140px;font-family:Poppins;-inkscape-font-specification:'Poppins Medium';letter-spacing:0px;white-space:pre;opacity:0.7;stroke-width:0.823"
       transform="matrix(0.26458333,0,0,0.26458333,-21.984923,48.60488)"
       aria-label="QueerDevs☭"><path
         style="font-weight:normal;font-family:'LT Institute';-inkscape-font-specification:'LT Institute';fill:#ee3124"
         d="m 161.30477,337.74016 -14,7.84 11.76,17.64 c -3.5,1.4 -7.42,2.24 -11.62,2.24 -18.34,0 -31.08,-14.84 -31.08,-34.44 0,-19.18 12.74,-34.02 31.08,-34.02 18.34,0 31.08,14.84 31.08,34.02 0,8.68 -2.52,16.38 -6.86,22.26 z m 27.86,41.58 -7.7,-11.48 c 8.96,-9.1 14.14,-21.98 14.14,-36.68 0,-28.28 -19.6,-50.26 -48.16,-50.26 -28.56,0 -48.160004,21.98 -48.160004,50.26 0,28.42 19.600004,50.4 48.160004,50.4 7.7,0 14.7,-1.54 21,-4.48 l 6.72,10.08 z"
         id="path1" /><path
         style="font-weight:normal;font-family:'LT Institute';-inkscape-font-specification:'LT Institute';fill:#f57f29"
         d="m 270.36468,310.16016 h -15.82 v 40.46 c 0,8.96 -5.6,16.8 -15.4,16.8 -8.82,0 -15.12,-6.3 -15.12,-15.82 v -41.44 h -15.82 v 41.44 c 0,17.92 11.06,29.96 27.02,29.96 9.38,0 15.26,-3.92 19.88,-10.08 l 0.84,0.28 1.4,8.4 h 13.02 z"
         id="path2" /><path
         style="font-weight:normal;font-family:'LT Institute';-inkscape-font-specification:'LT Institute';fill:#fff000"
         d="m 299.48468,337.74016 c 2.1,-8.12 7.98,-14.56 17.36,-14.56 9.24,0 15.12,6.44 17.22,14.56 z m 51.1,12.04 v -4.62 c 0,-20.44 -13.86,-36.4 -33.74,-36.4 -20.02,0 -33.88,15.96 -33.88,36.4 0,20.44 14.84,36.4 35.98,36.4 11.9,0 21.7,-4.76 27.86,-12.46 l -11.62,-9.24 c -3.5,4.48 -9.1,7.28 -15.96,7.28 -11.9,0 -18.62,-8.12 -20.3,-17.36 z"
         id="path3" /><path
         style="font-weight:normal;font-family:'LT Institute';-inkscape-font-specification:'LT Institute';fill:#58b947"
         d="m 375.08481,337.74016 c 2.1,-8.12 7.98,-14.56 17.36,-14.56 9.24,0 15.12,6.44 17.22,14.56 z m 51.1,12.04 v -4.62 c 0,-20.44 -13.86,-36.4 -33.74,-36.4 -20.02,0 -33.88,15.96 -33.88,36.4 0,20.44 14.84,36.4 35.98,36.4 11.9,0 21.7,-4.76 27.86,-12.46 l -11.62,-9.24 c -3.5,4.48 -9.1,7.28 -15.96,7.28 -11.9,0 -18.62,-8.12 -20.3,-17.36 z"
         id="path4" /><path
         style="font-weight:normal;font-family:'LT Institute';-inkscape-font-specification:'LT Institute';fill:#0054a6"
         d="m 478.40494,309.60016 c -2.24,-0.56 -4.48,-0.84 -6.72,-0.84 -8.54,0 -14,3.92 -18.06,10.08 l -0.84,-0.28 -1.4,-8.4 h -13.02 v 70 h 15.82 v -40.46 c 0,-8.96 4.9,-16.8 15.4,-16.8 2.38,0 6.16,0.42 8.82,1.12 z"
         id="path5" /><path
         style="font-weight:normal;font-family:'LT Institute';-inkscape-font-specification:'LT Institute';fill:#9f248f"
         d="m 491.00497,380.16016 h 33.18 c 29.96,0 48.16,-21.42 48.16,-49 0,-27.58 -18.2,-49 -48.16,-49 h -33.18 z m 16.8,-14.84 v -68.32 h 16.38 c 19.74,0 31.08,14.84 31.08,33.88 0,19.6 -11.34,34.44 -31.08,34.44 z"
         id="path6" /><path
         style="font-weight:normal;font-family:'LT Institute';-inkscape-font-specification:'LT Institute';fill:#f498c0"
         d="m 597.96493,337.74016 c 2.1,-8.12 7.98,-14.56 17.36,-14.56 9.24,0 15.12,6.44 17.22,14.56 z m 51.1,12.04 v -4.62 c 0,-20.44 -13.86,-36.4 -33.74,-36.4 -20.02,0 -33.88,15.96 -33.88,36.4 0,20.44 14.84,36.4 35.98,36.4 11.9,0 21.7,-4.76 27.86,-12.46 l -11.62,-9.24 c -3.5,4.48 -9.1,7.28 -15.96,7.28 -11.9,0 -18.62,-8.12 -20.3,-17.36 z"
         id="path7" /><path
         style="font-weight:normal;font-family:'LT Institute';-inkscape-font-specification:'LT Institute';fill:#7cc0ea"
         d="m 653.54509,310.16016 27.16,70 h 16.94 l 27.16,-70 h -17.22 l -18.06,50.68 h -0.7 l -18.06,-50.68 z"
         id="path8" /><path
         style="font-weight:normal;font-family:'LT Institute';-inkscape-font-specification:'LT Institute';fill:#895121;fill-opacity:1"
         d="m 757.00494,322.62016 c 6.16,0 11.48,2.38 14.84,6.02 l 10.08,-10.64 c -5.46,-5.74 -14.42,-9.24 -24.5,-9.24 -15.4,0 -25.76,8.26 -25.76,21 0,24.5 37.94,18.34 37.94,31.08 0,3.92 -3.64,6.86 -10.5,6.86 -6.86,0 -14.7,-2.94 -19.88,-8.4 l -10.22,11.48 c 6.72,6.72 17.92,10.78 29.12,10.78 15.96,0 27.02,-8.26 27.02,-21.56 0,-24.64 -37.94,-19.18 -37.94,-31.08 0,-3.36 2.94,-6.3 9.8,-6.3 z"
         id="path9" /><path
         id="path0"
         d="m 19.24048,283.07086 c -3.99002,0.34978 -7.4046,0.86351 -11.40825,1.71554 -4.2278703,0.9001 -11.4487804,3.26175 -8.9687504,2.9335 9.4606004,-1.25312 17.6164204,-1.39375 25.3994904,-0.43876 1.62945,0.19983 2.33044,0.30494 4.305,0.6454 1.62837,0.28054 3.98643,0.82297 5.66825,1.30333 0.23678,0.0678 0.65651,0.18261 0.93275,0.25543 3.14875,0.82943 8.7309,3.16812 11.59946,4.85963 0.57866,0.34153 1.07984,0.62064 1.11356,0.62064 0.10045,0 2.63609,1.69581 3.71773,2.48649 4.73943,3.46445 9.6421,8.88157 12.16555,13.442 0.72109,1.30298 1.77474,3.39342 2.09761,4.1615 0.37346,0.88826 0.70064,1.65455 0.88791,2.08075 0.17363,0.39391 1.00306,2.89942 1.1645,3.51575 0.0721,0.27623 0.19659,0.72826 0.27624,1.0045 1.22585,4.2476 1.8124,10.43818 1.41311,14.91574 -0.25901,2.90121 -1.09813,7.55778 -1.5663,8.69 -0.0653,0.15785 -0.31893,0.91266 -0.5636,1.67751 -0.90763,2.837 -2.3803,5.97749 -3.97279,8.47475 -0.80109,1.25598 -0.88863,1.29545 -1.43464,0.64611 -0.45239,-0.53812 -4.68276,-4.98949 -7.53446,-7.92837 -1.07194,-1.10495 -2.55824,-2.65188 -3.30229,-3.4379 -5.42286,-5.7278 -18.97643,-19.45931 -23.38009,-23.68682 -2.49654,-2.39681 -5.06698,-4.77927 -5.43255,-5.03541 -0.47175,-0.33041 -0.69812,-0.0753 6.29355,-7.10433 3.63055,-3.64992 6.601,-6.70826 6.601,-6.79651 0,-0.15606 -2.6526,-2.71251 -3.86876,-3.72849 -0.55032,-0.46028 -0.68916,-0.50727 -1.49025,-0.50692 -0.48574,3.6e-4 -1.56127,-0.0617 -2.38999,-0.1374 -0.82871,-0.076 -3.15341,-0.24108 -5.16599,-0.367 -2.01259,-0.12592 -4.33227,-0.28987 -5.15488,-0.36449 -0.82297,-0.075 -2.04272,-0.13596 -2.71072,-0.13596 h -1.21472 l -0.66154,0.59839 c -0.36413,0.32897 -1.31087,1.21688 -2.10407,1.97313 -0.79319,0.75588 -2.69815,2.53707 -4.23324,3.95772 -1.53509,1.42065 -3.3747603,3.13189 -4.0879603,3.80275 -0.71319,0.67086 -1.71411003,1.60756 -2.22425003,2.08183 -2.18263007,2.02837 -5.24922997,4.89442 -5.44940997,5.09317 -0.11946,0.11839 -0.63606,0.59839 -1.148,1.06692 -0.51193,0.46853 -1.44791,1.34029 -2.08003,1.93725 -0.63176,0.59696 -1.5928497,1.5028 -2.1352797,2.01259 l -0.98656,0.92665 6.9927496,6.92997 c 3.84616007,3.81136 7.0580501,6.92961 7.1373301,6.92961 0.22996,0 1.00414,-0.69382 5.7744403,-5.17604 1.77617,-1.66855 4.59558,-4.28025 5.55093,-5.14089 l 0.85885,-0.77418 0.96073,0.99123 c 0.52808,0.5453 2.4126,2.50802 4.18769,4.36168 1.7751,1.85366 4.03952,4.20993 5.03183,5.23595 0.9923,1.02603 2.47824,2.57511 3.30193,3.44221 0.82369,0.8671 2.36918,2.48147 3.43467,3.5875 2.056,2.13384 7.00603,7.31491 9.0405,9.46202 1.76325,1.8612 4.41155,4.63003 6.32368,6.61176 0.91374,0.9471 2.23788,2.33439 2.94247,3.08274 0.70459,0.74835 2.03985,2.14497 2.96722,3.10319 0.92737,0.95822 1.68612,1.80917 1.68612,1.89097 0,0.34476 -4.36526,2.78426 -6.17049,3.4483 -2.86068,1.05222 -4.70824,1.53796 -7.53375,1.98138 -2.19376,0.34404 -8.08909,0.34225 -10.332,-0.003 -2.93242,-0.45167 -4.28706,-0.72467 -6.67275,-1.34567 -0.80682,-0.21023 -2.62963,-0.76773 -2.94174,-0.9001 -0.15785,-0.0671 -0.57759,-0.21597 -0.93275,-0.33113 -0.78495,-0.25471 -2.41977,-0.86818 -3.05261,-1.14585 -0.25471,-0.11193 -0.83624,-0.37274 -1.29221,-0.57938 -0.45597,-0.20664 -1.181775,-0.52333 -1.228055,-0.52333 -6.970521,-3.27765 -10.5525978,-5.58332 -16.3998,-11.48703 l -7.4505553,6.89891 c -4.3688597,3.70553 -9.8871507,8.83386 -10.8744307,10.10563 -3.28148,4.22643 -1.50747,9.33037 3.97208,11.42618 1.845051,0.70602 4.030911,0.043 5.822511,-1.76505 1.4845097,-1.49885 2.5133997,-2.87036 5.9477096,-7.92801 0.85742,-1.2628 2.23071,-3.27144 3.05189,-4.46357 l 1.49276007,-2.16756 1.35966003,1.29257 c 5.2904803,5.03111 9.8132403,8.02918 16.2833003,10.79514 0.54781,0.23391 2.28595,0.85921 2.94175,1.0576 0.27624,0.0839 0.8897,0.27624 1.36325,0.42799 0.94459,0.30278 3.48597,0.89974 4.95075,1.16306 0.51301,0.0922 1.22333,0.22315 1.5785,0.29131 3.57063,0.68306 11.7713,0.68306 14.99574,-3.6e-4 0.3157,-0.0667 0.96145,-0.20054 1.435,-0.29704 2.35663,-0.48037 5.7339,-1.46191 7.42397,-2.15824 0.41543,-0.17113 1.01383,-0.41292 1.32953,-0.53669 1.35355,-0.53203 5.30661,-2.64578 6.97695,-3.731 2.09546,-1.3611 1.83716,-1.38513 3.42678,0.31929 7.28083,7.80855 7.23598,7.76442 8.0055,7.88747 2.85709,0.45705 7.49931,-3.41781 7.75259,-6.47113 0.0933,-1.12647 -0.13238,-1.45401 -3.48884,-5.06304 -0.55248,-0.59373 -1.45079,-1.56235 -1.99645,-2.1525 -0.54566,-0.58978 -1.49814,-1.60289 -2.11662,-2.25151 -1.16666,-1.22298 -1.28253,-1.45294 -0.89329,-1.77581 0.67302,-0.55858 4.05997,-5.39775 5.42394,-7.749 4.55935,-7.86057 6.4331,-19.0098 4.80904,-28.61497 -1.58782,-9.39099 -5.08564,-17.31721 -10.95514,-24.82549 -0.55535,-0.71032 -1.04325,-1.32378 -1.0845,-1.36325 -0.0413,-0.0395 -0.32503,-0.36233 -0.63033,-0.7175 -5.53981,-6.43956 -12.8949,-11.59802 -20.89788,-14.65672 -0.82872,-0.31678 -1.6359,-0.62997 -1.79375,-0.69669 -0.15785,-0.0664 -0.41615,-0.15247 -0.574,-0.19122 -0.15785,-0.0387 -0.83589,-0.24466 -1.50675,-0.4574 -0.67086,-0.21274 -1.44576,-0.44019 -1.722,-0.50584 -0.27624,-0.0653 -0.76055,-0.18834 -1.07625,-0.27337 -1.61653,-0.43444 -4.05101,-0.90082 -6.81625,-1.30513 -3.59611,-0.52629 -11.33829,-0.73651 -15.06749,-0.40933"
         stroke="none"
         fill="#fbd314"
         fill-rule="evenodd"
         sodipodi:nodetypes="ccccccccscccccccscccccccsscccscscccssccsccccsccccssscccsssccsccccssccccccccccccsccccccccccccccscscccsscccc"
         style="opacity:1;fill:#ff0000;stroke:#ff0000;stroke-width:1.88976;stroke-dasharray:none" /><text
         xml:space="preserve"
         style="font-size:140px;font-family:'LT Institute';-inkscape-font-specification:'LT Institute';letter-spacing:0px;opacity:1;fill:#ff0000;stroke:#ff0000;stroke-width:1.88976;stroke-dasharray:none"
         x="828.8371"
         y="329.30923"
         id="text3"><tspan
           sodipodi:role="line"
           id="tspan1"
           x="828.8371"
           y="329.30923" /></text><g
         style="fill:none;stroke:#ff0000;stroke-width:62"
         id="g3"
         transform="matrix(0.17944906,0,0,0.17944906,798.55134,278.38429)"><circle
           cx="310"
           cy="310"
           r="269"
           id="circle1"
           style="fill:none;stroke:#ff0000" /><path
           d="M 113,493 311,81 436,337 H 188 436 l 77,156"
           id="path1-5"
           style="fill:none;stroke:#ff0000" /></g></g></g></svg>
